<svg width="50px" height="60px" viewBox="80 15 86 80" version="1.1"
    xmlns="http://www.w3.org/2000/svg" xmlns:xlink="http://www.w3.org/1999/xlink"
    style="height: 50px; width: 60px">
    <g xmlns="http://www.w3.org/2000/svg">
        <path
            d="M132.84,45.54V36.22l2.94-2,6.44-4.45v-6.1l-14.13,9.43a26.21,26.21,0,0,0-6.4,5.84v.2Z"
            style="fill: rgb(25, 120, 255);"></path>
        <path
            d="M108.61,37.91c2.88-6.29,11.59-13,11.59-13L149,6,137.81,0,116,14.15S94.35,27.31,96,48.93c1.3,17,22.42,22.2,22.42,22.2C106,66.08,104.57,46.73,108.61,37.91Z"
            style="fill: rgb(25, 120, 255);"></path>
        <path
            d="M149,6l-28.77,19s-8.71,6.69-11.59,13c-4.32,9.42-2.34,31,12.51,34,0,0,6.2,1.49,17.19-4.72,5.75-3.25,13.35,3.22,13.35,3.22,8.66-6.62,2.16-13-4.81-15.33C140,52.8,135,57.41,127.63,59.3s-9.28-6.51-9.28-6.51-3.46-10.92,9.74-19.72l14.13-9.43v6.1l-9.38,6.48v9.32l16.45-10.95Z"
            style="fill: rgb(31, 178, 253);"></path>
        <path
            d="M162.42,50.1c-8.19-6.77-19.52-6.33-28.5-3.55-4.87,1.51-15.56,6.24-15.56,6.24a10.74,10.74,0,0,0,.45,1.4c.06.15.13.32.21.49s.15.33.24.5.25.49.4.74.2.32.31.48.34.47.52.7.3.34.46.5a6.57,6.57,0,0,0,2.58,1.66l.5.14a7.28,7.28,0,0,0,3.6-.1h.05c4.75-1.23,8.34-3.55,12-4.34a12.16,12.16,0,0,1,7.2.17c7,2.38,13.47,8.71,4.81,15.33h0L128.77,85.21h0l-6.28-3.66,14.06-8.64-9.21-4.82L104.09,82h0l16.07,8.73h0l11.33,6.15,32-21.14S178.64,63.52,162.42,50.1Z"
            style="fill: rgb(55, 237, 215);"></path>
        <path
            d="M169.9,63.41h0s0,.08,0,.12c-.18,7.18-6.44,12.25-6.44,12.25l-32,21.14v15.19l33-23c5.51-3.21,5.41-10.33,5.41-10.33Z"
            style="fill: rgb(31, 178, 253);"></path>
        <polygon
            points="136.56 72.91 136.56 72.91 136.56 72.91 122.5 81.55 128.65 85.14 128.87 85.15 136.56 80.19 136.56 72.91"
            style="fill: rgb(25, 120, 255);"></polygon>
        <polygon points="131.49 96.92 104.09 82.03 104.1 96.21 131.5 112.11 131.49 96.92"
            style="fill: rgb(25, 120, 255);"></polygon>
    </g>
</svg>